<svg fill="none" height="24" viewBox="0 0 24 24" width="24" xmlns="http://www.w3.org/2000/svg"><path clip-rule="evenodd" d="m23.1117 4.49449c.3179-1.54977-1.2043-2.83766-2.68-2.26749l-18.0892 6.98901c-1.647983.63672-1.721413 2.94119-.11732 3.68149l3.93932 1.8182 1.87399 6.5589c.09734.3407.36769.6045.71068.6934.34299.0888.70741-.0104.95795-.261l2.88668-2.8867 4.0437 3.0328c1.1738.8803 2.8644.2391 3.1592-1.1982zm-20.0484 6.58711 18.0892-6.989-3.315 16.1605-4.7375-3.5532c-.3981-.2986-.9552-.259-1.3071.0929l-1.2364 1.2364.3715-2.0431 7.2791-7.27907c.3543-.35425.3917-.91597.0876-1.3141-.3041-.39814-.8558-.50981-1.2908-.26125l-10.05266 5.74432zm5.11365 3.3975.60638 2.1224.23281-1.2805c.03639-.2001.13294-.3844.27677-.5282l2.21989-2.2198z" fill="#0f0f0f" fill-rule="evenodd"/></svg>